<svg width="250" height="24" viewBox="0 0 250 24" fill="none" xmlns="http://www.w3.org/2000/svg">
<g clip-path="url(#clip0)">
<path d="M59.3662 2.4723V6.4298H67.4992V22.3279H72.159V6.4254H80.3847V2.46791L59.3662 2.4723ZM87.0313 16.4576H95.7037C100.504 16.4576 102.497 14.4569 102.497 9.4221C102.497 4.38729 100.555 2.46571 95.6476 2.46571H82.3716V22.3169H87.0313V16.4576ZM87.0313 6.4254H94.7976C97.2375 6.4254 97.8307 7.48293 97.8307 9.4287C97.8307 11.5723 97.1577 12.5068 94.7976 12.5068H87.0313V6.4254ZM107.463 22.3235L109.987 17.3173H121.52L124.016 22.3235H129.489L119.246 2.4723H112.343L102.02 22.3235H107.463ZM111.866 13.5731L115.713 6.19455H115.928L119.628 13.5731H111.866ZM135.775 2.4723H131.116V22.3235H135.775V13.8281H138.606L147.615 22.3235H154.462L142.536 11.7702L154.009 2.47011H147.028L138.522 9.89261H135.775V2.4723ZM155.894 2.4723V6.4298H164.034V22.3279H168.687V6.4254H176.913V2.46791L155.894 2.4723ZM183.559 15.0615V9.77168C183.559 6.93548 184.373 6.19455 187.296 6.19455H193.293C196.067 6.19455 197.023 6.85413 197.023 9.7409V15.0308C197.023 17.7175 196.35 18.377 193.371 18.377H187.21C184.373 18.377 183.559 17.6603 183.559 15.0615ZM201.681 15.5474V9.30997C201.681 3.73211 199.461 2.24805 194.635 2.24805H186.086C180.783 2.24805 178.906 3.87502 178.906 9.30997V15.5474C178.906 20.347 180.869 22.3235 186.086 22.3235H194.646C200.089 22.3235 201.691 20.4899 201.691 15.5474H201.681ZM209.257 16.4576H217.927C222.723 16.4576 224.716 14.4569 224.716 9.4221C224.716 4.38729 222.775 2.46571 217.867 2.46571H204.608V22.3169H209.268L209.257 16.4576ZM209.257 6.4254H217.023C219.463 6.4254 220.044 7.48293 220.044 9.4287C220.044 11.5723 219.37 12.5068 217.023 12.5068H209.257V6.4254Z" fill="white"/>
<path d="M225.62 22.2981H227.301V20.5854H225.62V22.2981ZM233.544 15.1328C233.544 15.4626 233.328 15.6869 232.933 15.6869H230.634C229.277 15.6869 228.567 16.4718 228.567 17.6656V20.3039C228.567 21.4692 229.35 22.2981 230.767 22.2981H233.203C234.633 22.2981 235.386 21.4318 235.386 20.3039V19.5058C235.386 18.2614 234.56 17.4941 233.196 17.4941H231.686C230.739 17.4941 230.379 17.9184 230.086 18.3846V17.725C230.086 17.083 230.416 16.7532 231.009 16.7532H232.735C234.428 16.7532 234.845 15.9793 234.845 15.1328H233.544ZM231.404 21.1218C230.683 21.1218 230.247 20.6975 230.247 20.161V19.6004C230.247 19.0771 230.679 18.5604 231.404 18.5604H232.541C233.391 18.5604 233.697 18.921 233.697 19.5322V20.161C233.697 20.7898 233.373 21.1218 232.541 21.1218H231.404ZM241.112 19.1695H237.766C237.766 18.6726 237.962 18.235 238.616 18.235H240.169C240.885 18.235 241.112 18.6748 241.112 19.1695ZM242.719 20.1171V19.2508C242.719 18.2285 242.225 17.1753 240.574 17.1753H238.165C236.668 17.1753 236.068 18.1537 236.068 19.0529V20.3479C236.068 21.4472 236.728 22.2981 238.134 22.2981H240.598C242.287 22.2981 242.701 21.5198 242.701 20.6227H241.094C241.106 20.7057 241.098 20.7903 241.072 20.8698C241.046 20.9493 241.002 21.0216 240.944 21.0809C240.886 21.1401 240.815 21.1848 240.737 21.2114C240.659 21.238 240.576 21.2457 240.495 21.234H238.553C237.861 21.234 237.75 20.7591 237.75 20.3171V20.1171H242.719ZM244.121 17.1951V19.9236C244.121 20.9657 243.979 21.1218 243.105 21.1218V22.2981H243.815C245.074 22.2981 245.741 21.5769 245.741 20.161V18.3736H248.33V22.2981H250.01V17.1951H244.121Z" fill="#BA3530"/>
<path fill-rule="evenodd" clip-rule="evenodd" d="M25.6979 23.2223C32.2461 19.3167 38.2015 14.4603 43.3769 8.80605C33.9663 6.17358 24.1446 5.42323 14.4541 6.59645C16.7202 8.58315 19.0972 10.4345 21.5732 12.1413C25.4543 12.0473 29.3369 12.2597 33.1859 12.7767C33.2828 12.7881 33.3745 12.8279 33.4498 12.8913C33.525 12.9547 33.5806 13.0389 33.6098 13.1338C33.639 13.2288 33.6406 13.3303 33.6144 13.4261C33.5882 13.522 33.5352 13.608 33.462 13.6738C29.3697 17.2392 24.8359 20.2418 19.9768 22.6045C20.3262 22.8244 20.6736 23.0442 21.0295 23.2465C21.7393 23.6862 22.49 24.0072 23.3896 24.0006C24.2331 24.0006 25.0227 23.6269 25.7022 23.2223H25.6979Z" fill="#BA3530"/>
<path fill-rule="evenodd" clip-rule="evenodd" d="M17.3694 20.9272C19.7295 19.7877 22.0152 18.4944 24.2123 17.0554C18.8665 13.8345 13.5596 9.74507 9.19325 5.29509C9.12488 5.23051 9.07548 5.14783 9.05057 5.05629C9.02566 4.96474 9.02621 4.86794 9.05217 4.7767C9.07814 4.68545 9.12848 4.60337 9.19759 4.53961C9.26669 4.47585 9.35183 4.43293 9.44349 4.41565C21.4244 2.12662 33.7714 2.83429 45.4249 6.47794C45.7852 6.03822 46.1411 5.61829 46.4885 5.18736C46.5919 5.05639 46.6624 4.90162 46.6938 4.73653C46.7251 4.57144 46.7164 4.40104 46.6683 4.24018C46.6202 4.07932 46.5343 3.93288 46.418 3.81363C46.3016 3.69438 46.1585 3.60593 46.0009 3.55599C31.259 -1.19054 15.4398 -1.19054 0.697845 3.55599C0.541208 3.61088 0.399888 3.7035 0.285892 3.82597C0.171896 3.94844 0.0885926 4.09715 0.0430606 4.25945C-0.00247145 4.42176 -0.00888657 4.59287 0.0243603 4.75824C0.0576072 4.92362 0.129533 5.07837 0.234028 5.20935C5.15138 11.2837 10.9261 16.5807 17.3694 20.9272Z" fill="#BA3530"/>
</g>
<defs>
<clipPath id="clip0">
<rect width="250" height="24" fill="white"/>
</clipPath>
</defs>
</svg>
