<svg width="60" height="30" viewBox="0 0 60 30" fill="none" xmlns="http://www.w3.org/2000/svg">
<path fill-rule="evenodd" clip-rule="evenodd" d="M33.0068 29.0272C41.4183 24.1464 49.0684 18.0775 55.7164 11.0116C43.628 7.72182 31.0115 6.78413 18.5635 8.25027C21.4744 10.733 24.5278 13.0466 27.7083 15.1796C32.6939 15.062 37.6812 15.3275 42.6255 15.9736C42.75 15.9878 42.8678 16.0375 42.9645 16.1167C43.0611 16.196 43.1325 16.3013 43.1701 16.4199C43.2076 16.5385 43.2097 16.6654 43.176 16.7851C43.1422 16.9049 43.0742 17.0124 42.9802 17.0946C37.7234 21.5503 31.8995 25.3025 25.6576 28.2552C26.1066 28.5299 26.5527 28.8047 27.01 29.0574C27.9217 29.6069 28.886 30.0081 30.0416 29.9998C31.1251 29.9998 32.1394 29.5328 33.0123 29.0272H33.0068Z" fill="#BA3530"/>
<path fill-rule="evenodd" clip-rule="evenodd" d="M22.3075 26.1571C25.3393 24.7331 28.2754 23.1169 31.0976 21.3187C24.2307 17.2935 17.4137 12.1831 11.8048 6.62203C11.717 6.54133 11.6536 6.438 11.6216 6.3236C11.5896 6.2092 11.5903 6.08823 11.6236 5.9742C11.657 5.86018 11.7216 5.7576 11.8104 5.67792C11.8992 5.59824 12.0086 5.54461 12.1263 5.52301C27.5164 2.66247 43.3768 3.54683 58.3464 8.10021C58.8092 7.5507 59.2664 7.02592 59.7126 6.4874C59.8455 6.32374 59.9361 6.13032 59.9763 5.92401C60.0166 5.7177 60.0054 5.50475 59.9436 5.30373C59.8819 5.10271 59.7715 4.91971 59.622 4.77069C59.4726 4.62166 59.2887 4.51113 59.0863 4.44872C40.1495 -1.48291 19.8288 -1.48291 0.892029 4.44872C0.690821 4.51732 0.509288 4.63306 0.362853 4.7861C0.216419 4.93915 0.109411 5.12499 0.0509231 5.32782C-0.00756529 5.53065 -0.0158059 5.74448 0.0269016 5.95114C0.069609 6.15781 0.162002 6.3512 0.296231 6.51488C6.61284 14.1059 14.0307 20.7254 22.3075 26.1571Z" fill="#BA3530"/>
</svg>
