<svg width="620" height="49" viewBox="0 0 620 49" fill="none" xmlns="http://www.w3.org/2000/svg">
<g clip-path="url(#clip0)">
<path d="M147.228 5.04966V13.1295H167.398V45.5882H178.954V13.1206H199.354V5.04068L147.228 5.04966ZM215.838 33.603H237.345C249.249 33.603 254.192 29.5182 254.192 19.2388C254.192 8.95942 249.377 5.03619 237.206 5.03619H204.281V45.5658H215.838V33.603ZM215.838 13.1206H235.098C241.149 13.1206 242.62 15.2797 242.62 19.2523C242.62 23.6289 240.951 25.5366 235.098 25.5366H215.838V13.1206ZM266.508 45.5792L272.768 35.3582H301.37L307.56 45.5792H321.133L295.731 5.04966H278.61L253.01 45.5792H266.508ZM277.428 27.7137L286.967 12.6492H287.502L296.678 27.7137H277.428ZM336.723 5.04966H325.167V45.5792H336.723V28.2344H343.742L366.084 45.5792H383.065L353.49 24.0329L381.942 5.04517H364.629L343.534 20.1994H336.723V5.04966ZM386.618 5.04966V13.1295H406.804V45.5882H418.344V13.1206H438.744V5.04068L386.618 5.04966ZM455.228 30.7526V19.9525C455.228 14.162 457.245 12.6492 464.494 12.6492H479.367C486.247 12.6492 488.617 13.9959 488.617 19.8897V30.6898C488.617 36.1751 486.948 37.5218 479.56 37.5218H464.28C457.244 37.5218 455.228 36.0584 455.228 30.7526ZM500.168 31.7447V19.0099C500.168 7.62175 494.663 4.5918 482.695 4.5918H461.492C448.342 4.5918 443.687 7.91352 443.687 19.0099V31.7447C443.687 41.5438 448.556 45.5792 461.492 45.5792H482.722C496.22 45.5792 500.195 41.8355 500.195 31.7447H500.168ZM518.958 33.603H540.46C552.353 33.603 557.297 29.5182 557.297 19.2388C557.297 8.95942 552.481 5.03619 540.31 5.03619H507.428V45.5658H518.985L518.958 33.603ZM518.958 13.1206H538.218C544.269 13.1206 545.708 15.2797 545.708 19.2523C545.708 23.6289 544.039 25.5366 538.218 25.5366H518.958V13.1206Z" fill="#282828"/>
<path d="M559.537 45.5256H563.705V42.0288H559.537V45.5256ZM579.188 30.8965C579.188 31.5698 578.653 32.0277 577.674 32.0277H571.971C568.606 32.0277 566.845 33.6302 566.845 36.0676V41.4542C566.845 43.8333 568.787 45.5256 572.302 45.5256H578.343C581.89 45.5256 583.757 43.757 583.757 41.4542V39.8248C583.757 37.2841 581.708 35.7175 578.327 35.7175H574.582C572.233 35.7175 571.339 36.5838 570.612 37.5355V36.1888C570.612 34.8781 571.43 34.2048 572.902 34.2048H577.182C581.382 34.2048 582.414 32.6247 582.414 30.8965H579.188ZM573.881 43.1241C572.094 43.1241 571.013 42.2577 571.013 41.1624V40.0178C571.013 38.9495 572.083 37.8946 573.881 37.8946H576.7C578.808 37.8946 579.568 38.6307 579.568 39.8786V41.1624C579.568 42.4463 578.765 43.1241 576.7 43.1241H573.881ZM597.956 39.138H589.658C589.658 38.1235 590.145 37.2302 591.766 37.2302H595.618C597.394 37.2302 597.956 38.128 597.956 39.138ZM601.942 41.0727V39.3041C601.942 37.2168 600.717 35.0666 596.624 35.0666H590.648C586.935 35.0666 585.448 37.0641 585.448 38.9001V41.544C585.448 43.7884 587.085 45.5256 590.573 45.5256H596.683C600.872 45.5256 601.899 43.9365 601.899 42.1051H597.913C597.942 42.2746 597.923 42.4473 597.858 42.6096C597.794 42.7719 597.685 42.9194 597.541 43.0404C597.397 43.1615 597.221 43.2527 597.027 43.3069C596.834 43.3612 596.628 43.3769 596.426 43.353H591.611C589.894 43.353 589.621 42.3834 589.621 41.4812V41.0727H601.942ZM605.419 35.107V40.6777C605.419 42.8054 605.066 43.1241 602.9 43.1241V45.5256H604.66C607.784 45.5256 609.437 44.0533 609.437 41.1624V37.513H615.858V45.5256H620.025V35.107H605.419Z" fill="#BA3530"/>
<path fill-rule="evenodd" clip-rule="evenodd" d="M63.7309 47.4118C79.9704 39.4377 94.7399 29.5227 107.575 17.9785C84.2366 12.6039 59.8787 11.0719 35.8462 13.4673C41.4661 17.5234 47.361 21.3034 53.5015 24.7881C63.1269 24.596 72.7555 25.0298 82.301 26.0854C82.5415 26.1086 82.7689 26.1898 82.9555 26.3192C83.1421 26.4486 83.28 26.6206 83.3525 26.8145C83.4249 27.0083 83.4289 27.2156 83.3638 27.4112C83.2987 27.6069 83.1674 27.7825 82.9858 27.9168C72.837 35.1963 61.5931 41.3266 49.5424 46.1504C50.4091 46.5993 51.2705 47.0482 52.1533 47.4612C53.9134 48.359 55.7753 49.0143 58.0063 49.0009C60.0981 49.0009 62.0563 48.2378 63.7416 47.4118H63.7309Z" fill="#BA3530"/>
<path fill-rule="evenodd" clip-rule="evenodd" d="M43.071 42.7305C48.9242 40.404 54.5928 37.7636 60.0414 34.8257C46.784 28.2495 33.6228 19.9003 22.7942 10.8149C22.6247 10.6831 22.5021 10.5142 22.4404 10.3273C22.3786 10.1404 22.38 9.9428 22.4443 9.75651C22.5087 9.57023 22.6336 9.40263 22.805 9.27246C22.9763 9.14228 23.1875 9.05466 23.4148 9.01937C53.1275 4.34593 83.748 5.79077 112.649 13.2299C113.542 12.3321 114.425 11.4748 115.286 10.595C115.543 10.3276 115.718 10.0116 115.796 9.6745C115.873 9.33744 115.852 8.98954 115.732 8.66112C115.613 8.3327 115.4 8.03373 115.112 7.79025C114.823 7.54678 114.468 7.3662 114.077 7.26424C77.5172 -2.42662 38.2856 -2.42662 1.7256 7.26424C1.33714 7.37631 0.986665 7.5654 0.703954 7.81544C0.421243 8.06549 0.214651 8.3691 0.101732 8.70047C-0.0111878 9.03185 -0.0270973 9.3812 0.055355 9.71884C0.137807 10.0565 0.316184 10.3724 0.57533 10.6398C12.7704 23.0417 27.0916 33.8564 43.071 42.7305Z" fill="#BA3530"/>
</g>
<defs>
<clipPath id="clip0">
<rect width="620" height="49" fill="white"/>
</clipPath>
</defs>
</svg>
