<svg width="180" height="18" viewBox="0 0 180 18" fill="none" xmlns="http://www.w3.org/2000/svg">
<g clip-path="url(#clip0)">
<path d="M42.7437 1.85521V4.82333H48.5994V16.7469H51.9544V4.82003H57.877V1.85191L42.7437 1.85521ZM62.6625 12.3442H68.9066C72.3626 12.3442 73.7978 10.8437 73.7978 7.06755C73.7978 3.29145 72.3999 1.85026 68.8662 1.85026H59.3075V16.7387H62.6625V12.3442ZM62.6625 4.82003H68.2542C70.011 4.82003 70.4381 5.61317 70.4381 7.0725C70.4381 8.68023 69.9535 9.38104 68.2542 9.38104H62.6625V4.82003ZM77.3734 16.7436L79.1907 12.989H87.4944L89.2915 16.7436H93.2321L85.8572 1.85521H80.8868L73.4545 16.7436H77.3734ZM80.5436 10.1808L83.313 4.64689H83.4683L86.1322 10.1808H80.5436ZM97.7583 1.85521H94.4032V16.7436H97.7583V10.3721H99.7961L106.282 16.7436H111.213L102.626 8.82864L110.886 1.85356H105.86L99.7355 7.42043H97.7583V1.85521ZM112.244 1.85521V4.82333H118.104V16.7469H121.455V4.82003H127.377V1.85191L112.244 1.85521ZM132.163 11.2971V7.32974C132.163 5.20258 132.748 4.64689 134.853 4.64689H139.171C141.169 4.64689 141.857 5.14157 141.857 7.30665V11.274C141.857 13.2891 141.372 13.7837 139.227 13.7837H134.791C132.748 13.7837 132.163 13.2462 132.163 11.2971ZM145.21 11.6615V6.98346C145.21 2.80006 143.612 1.68701 140.137 1.68701H133.982C130.164 1.68701 128.812 2.90724 128.812 6.98346V11.6615C128.812 15.2612 130.226 16.7436 133.982 16.7436H140.145C144.064 16.7436 145.218 15.3684 145.218 11.6615H145.21ZM150.665 12.3442H156.908C160.36 12.3442 161.796 10.8437 161.796 7.06755C161.796 3.29145 160.398 1.85026 156.864 1.85026H147.318V16.7387H150.673L150.665 12.3442ZM150.665 4.82003H156.257C158.014 4.82003 158.431 5.61317 158.431 7.0725C158.431 8.68023 157.947 9.38104 156.257 9.38104H150.665V4.82003Z" fill="white"/>
<path d="M162.446 16.7236H163.656V15.439H162.446V16.7236ZM168.151 11.3496C168.151 11.597 167.996 11.7651 167.712 11.7651H166.056C165.079 11.7651 164.568 12.3538 164.568 13.2492V15.228C164.568 16.1019 165.132 16.7236 166.152 16.7236H167.906C168.936 16.7236 169.478 16.0739 169.478 15.228V14.6294C169.478 13.6961 168.883 13.1206 167.901 13.1206H166.814C166.132 13.1206 165.873 13.4388 165.662 13.7884V13.2937C165.662 12.8122 165.899 12.5649 166.326 12.5649H167.569C168.788 12.5649 169.088 11.9845 169.088 11.3496H168.151ZM166.611 15.8414C166.092 15.8414 165.778 15.5231 165.778 15.1208V14.7003C165.778 14.3078 166.089 13.9203 166.611 13.9203H167.429C168.041 13.9203 168.262 14.1908 168.262 14.6492V15.1208C168.262 15.5924 168.029 15.8414 167.429 15.8414H166.611ZM173.6 14.3771H171.191C171.191 14.0044 171.332 13.6763 171.803 13.6763H172.921C173.437 13.6763 173.6 14.0061 173.6 14.3771ZM174.757 15.0878V14.4381C174.757 13.6713 174.402 12.8815 173.213 12.8815H171.478C170.4 12.8815 169.969 13.6153 169.969 14.2897V15.2609C169.969 16.0854 170.444 16.7236 171.457 16.7236H173.23C174.447 16.7236 174.745 16.1398 174.745 15.4671H173.588C173.596 15.5293 173.591 15.5927 173.572 15.6524C173.553 15.712 173.521 15.7662 173.48 15.8106C173.438 15.8551 173.387 15.8886 173.331 15.9085C173.274 15.9285 173.215 15.9343 173.156 15.9255H171.758C171.259 15.9255 171.18 15.5693 171.18 15.2378V15.0878H174.757ZM175.767 12.8963V14.9427C175.767 15.7243 175.664 15.8414 175.035 15.8414V16.7236H175.546C176.453 16.7236 176.933 16.1827 176.933 15.1208V13.7802H178.797V16.7236H180.007V12.8963H175.767Z" fill="#BA3530"/>
<path fill-rule="evenodd" clip-rule="evenodd" d="M18.5028 17.4167C23.2175 14.4875 27.5054 10.8452 31.2317 6.60454C24.456 4.63018 17.3844 4.06743 10.4072 4.94734C12.0388 6.43736 13.7502 7.82591 15.533 9.106C18.3274 9.03545 21.1228 9.19478 23.8941 9.58255C23.9639 9.59108 24.0299 9.62092 24.0841 9.66845C24.1383 9.71599 24.1783 9.77918 24.1994 9.85038C24.2204 9.92158 24.2215 9.99772 24.2027 10.0696C24.1838 10.1415 24.1456 10.206 24.0929 10.2553C21.1465 12.9294 17.8821 15.1814 14.3835 16.9534C14.6352 17.1183 14.8852 17.2832 15.1415 17.4349C15.6526 17.7647 16.1931 18.0054 16.8408 18.0005C17.4481 18.0005 18.0166 17.7202 18.5059 17.4167H18.5028Z" fill="#BA3530"/>
<path fill-rule="evenodd" clip-rule="evenodd" d="M12.5054 15.6964C14.2048 14.8417 15.8505 13.8718 17.4324 12.7926C13.5834 10.3768 9.76241 7.30978 6.61863 3.97229C6.56941 3.92386 6.53384 3.86185 6.51591 3.79319C6.49797 3.72453 6.49837 3.65193 6.51706 3.5835C6.53576 3.51507 6.572 3.4535 6.62176 3.40568C6.67151 3.35786 6.73282 3.32567 6.79881 3.31271C15.4251 1.59594 24.3149 2.1267 32.7054 4.85943C32.9648 4.52964 33.2211 4.21469 33.4712 3.8915C33.5457 3.79327 33.5965 3.67719 33.619 3.55337C33.6416 3.42955 33.6353 3.30175 33.6007 3.18111C33.5661 3.06046 33.5042 2.95064 33.4204 2.8612C33.3367 2.77176 33.2336 2.70542 33.1202 2.66797C22.506 -0.891928 11.1161 -0.891928 0.501941 2.66797C0.389162 2.70914 0.287412 2.7786 0.205335 2.87045C0.123257 2.96231 0.0632789 3.07383 0.0304958 3.19556C-0.00228726 3.31729 -0.00690615 3.44563 0.0170316 3.56966C0.0409694 3.69369 0.0927563 3.80975 0.167992 3.90798C3.70849 8.46377 7.86627 12.4365 12.5054 15.6964Z" fill="#BA3530"/>
</g>
<defs>
<clipPath id="clip0">
<rect width="180" height="18" fill="white"/>
</clipPath>
</defs>
</svg>
